<svg width="180" height="35" viewBox="0 0 180 35" fill="none" xmlns="http://www.w3.org/2000/svg">
<path d="M44.1439 18.97C45.4664 18.8913 47.7773 18.8126 48.5639 18.7798V17.3694C48.5639 16.1493 47.6103 15.4802 46.0511 15.4802C44.4919 15.4802 43.2746 16.3837 43.031 17.5382H37.6922C37.9288 14.4617 41.0186 11.6426 46.1833 11.6426C50.7356 11.6426 54.0079 13.6893 54.0079 17.4416V29.2618H48.9049V26.8287H48.7657C47.7495 28.5933 45.9815 29.2891 43.3991 29.2891C39.8631 29.2891 37.017 27.8848 37.017 24.4278C37.017 20.5837 40.4756 19.2061 44.1439 18.9831V18.97ZM45.1253 25.989C47.0604 25.989 48.6265 24.8017 48.5917 23.0765V21.9547C47.8957 21.9875 45.9397 22.0662 45.0905 22.145C43.6636 22.3024 42.7448 23.0437 42.7448 24.1916C42.7448 25.3396 43.7332 25.9825 45.1253 25.9825V25.989Z" fill="#02ACEA"/>
<path d="M160.275 29.0696H165.759C165.992 30.2665 167.231 31.3776 169.004 31.3776C171.044 31.3776 172.448 30.6091 172.448 28.4231V25.4685H172.249C171.544 26.9741 169.812 28.1774 167.101 28.1774C163.089 28.1774 159.816 25.626 159.816 19.9941C159.816 14.3621 163.26 11.7653 167.073 11.7653C169.983 11.7653 171.551 13.0392 172.222 14.5448H172.386V11.6854H178V28.4798C178 32.7258 174.289 35 168.874 35C163.459 35 160.549 32.2257 160.282 29.057L160.275 29.0696ZM172.441 20.0004C172.441 17.26 171.202 15.5402 168.997 15.5402C166.793 15.5402 165.588 17.323 165.588 20.0004C165.588 22.6777 166.827 24.3661 168.997 24.3661C171.167 24.3661 172.441 22.7344 172.441 20.0004Z" fill="#02ACEA"/>
<path d="M174.906 0.201417C174.976 -0.0671389 175.363 -0.0671389 175.434 0.201417L176.304 3.47524C176.33 3.57115 176.401 3.64149 176.497 3.66706L179.797 4.53028C180.068 4.60061 180.068 4.98426 179.797 5.0546L176.497 5.91782C176.401 5.94339 176.33 6.01373 176.304 6.10964L175.434 9.38346C175.363 9.65202 174.976 9.65202 174.906 9.38346L174.035 6.10964C174.01 6.01373 173.939 5.94339 173.842 5.91782L170.543 5.0546C170.272 4.98426 170.272 4.60061 170.543 4.53028L173.842 3.66706C173.939 3.64149 174.01 3.57115 174.035 3.47524L174.906 0.201417Z" fill="#02ACEA"/>
<path d="M146.462 29.3892H140.737V11.6786H146.157V14.8513H146.358C147.205 12.7357 149.239 11.7428 151.952 11.7428C155.818 11.7428 158.358 14.0497 158.323 17.9918V29.3826H152.632V19.0167C152.632 17.0588 151.515 15.8696 149.613 15.8696C147.712 15.8696 146.462 17.0917 146.462 19.1087V29.3826V29.3892Z" fill="#02ACEA"/>
<path d="M127.888 19.0702C129.21 18.9914 131.521 18.9127 132.308 18.8799V17.4696C132.308 16.2494 131.354 15.5803 129.795 15.5803C128.236 15.5803 127.317 16.4839 127.073 17.6384H121.735C121.971 14.5618 124.763 11.7428 129.927 11.7428C134.48 11.7428 138.05 13.7895 138.05 17.5417V29.3619H132.649V26.9289H132.51C131.493 28.6935 129.725 29.3892 127.143 29.3892C123.607 29.3892 120.902 28.0687 120.902 24.6116C120.902 20.7676 124.22 19.3063 127.888 19.0833V19.0702ZM128.876 26.0892C130.811 26.0892 132.377 24.9019 132.343 23.1766V22.0549C131.647 22.0877 129.691 22.1664 128.841 22.2451C127.415 22.4026 126.496 23.1438 126.496 24.2918C126.496 25.4398 127.484 26.0826 128.876 26.0826V26.0892Z" fill="#02ACEA"/>
<path d="M93.3369 11.7428H98.9524L101.478 22.9617H101.614L104.309 11.7428H109.795L112.552 22.8962H112.688L115.111 11.7428H120.761L116.01 29.3892H110.027L107.168 18.8051H106.937L104.078 29.3892H98.0947L93.3437 11.7428H93.3369Z" fill="#02ACEA"/>
<path d="M55.4821 20.4219C55.4821 15.098 59.2443 11.7428 64.9598 11.7428C69.9728 11.7428 73.23 13.3222 73.3677 17.5499H68.086C67.765 16.0639 66.7432 15.551 65.0286 15.551C62.9421 15.551 61.5649 17.2512 61.5649 20.3563C61.5649 23.4614 62.9077 25.1944 65.0286 25.1944C66.64 25.1944 67.8519 25.0855 68.086 23.2212H73.3677C73.2024 27.4554 70.0417 29.3892 64.9598 29.3892C59.2099 29.3892 55.4821 25.7327 55.4821 20.4154V20.4219Z" fill="#02ACEA"/>
<path d="M8.55604 15.3038C7.14721 15.3038 6.04077 15.9054 6.07513 16.7851C6.04077 17.4514 6.57681 17.9883 8.15744 18.2664L11.6142 18.9004C15.2359 19.5666 16.9815 21.0479 17.0159 23.5448C16.9815 27.0507 13.5591 29.3277 8.62477 29.3277C3.42242 29.3277 0.371105 26.5679 0 23.159H5.6353C5.8346 24.388 6.9754 25.6341 8.65225 25.6341C10.1985 25.6341 11.2362 25.0649 11.2706 24.1205C11.2362 23.3637 10.5353 22.8914 8.95463 22.5745L5.8346 22.0376C2.24725 21.4037 0.432956 19.7025 0.467318 17.0762C0.432956 13.6673 3.51863 11.6426 8.45296 11.6426C13.3873 11.6426 16.3355 14.0429 16.576 17.4519H11.305C11.14 16.3134 10.0611 15.3038 8.55604 15.3038Z" fill="#02ACEA"/>
<path d="M24.1443 29.3892H18.5156V11.6786H23.8441V14.8513H24.042C24.8744 12.7357 26.8734 11.7428 29.5411 11.7428C33.3413 11.7428 35.5399 14.0497 35.5058 17.9918V29.3826H30.2097V19.0167C30.2097 17.0588 29.1112 15.8696 27.2418 15.8696C25.3724 15.8696 23.8458 17.0917 23.8458 19.1087V24.2457V29.3826L24.1443 29.3892Z" fill="#02ACEA"/>
<path d="M91.8879 22.2326C90.7951 23.5573 88.7348 23.4556 87.7776 22.0298L85.9294 19.2767L92.47 11.7068H86.0279L80.756 18.0297H80.5231V5.895H74.8601V29.4238H80.5291V23.8003L81.7381 22.4532L84.3626 26.5551C85.5062 28.3424 87.4818 29.4238 89.6037 29.4238C91.5756 29.4238 93.4308 28.4891 94.6043 26.9043L95.7419 25.3679L91.8879 22.2326Z" fill="#02ACEA"/>
</svg>
